<?xml version="1.0" encoding="UTF-8"?>
<svg id="Layer_1" xmlns="http://www.w3.org/2000/svg" version="1.1" viewBox="0 0 405 92.7">
  <!-- Generator: Adobe Illustrator 29.5.0, SVG Export Plug-In . SVG Version: 2.1.0 Build 137)  -->
  <defs>
    <style>
      .st0 {
        fill: #17e6a1;
      }

      .st1 {
        fill: #2354e6;
      }
    </style>
  </defs>
  <path d="M246,16h-10.7v11.5h-6.4v10.1h6.4v26.4c0,2.3.3,4.6,1,6.8.6,1.6,1.6,3.1,2.9,4.3,1.2,1.1,2.8,2,4.4,2.4,3.7.9,7.6.9,11.3,0,1.5-.4,2.9-.9,4.2-1.7v-8.1c-2,.8-4.1,1.3-6.3,1.3-1.8.2-3.6-.4-4.9-1.7-1.2-1.2-1.9-2.7-1.9-5.2v-24.5h13.2v-10.1h-13.1v-11.5h0ZM212.4,31.1c-11.6-8.5-28-6-36.5,5.6s-6,28,5.6,36.5c9.2,6.7,21.6,6.7,30.8,0v3.6h10.7V27.5h-10.7v3.6h0ZM197,67.6c-8.5,0-15.4-6.9-15.4-15.4s6.9-15.4,15.4-15.4,15.4,6.9,15.4,15.4h0c0,8.5-6.9,15.4-15.4,15.4h0ZM138.4,42.6v11.9h16.1c-2.1,8.7-9.9,14.8-18.9,14.6-11.3,0-20.5-9.2-20.5-20.5s9.2-20.5,20.6-20.5c5.9,0,11.5,2.6,15.4,7l9.2-7.5c-11.6-13.6-32-15.3-45.7-3.8s-15.3,32-3.8,45.7c6.2,7.3,15.2,11.4,24.7,11.4,8.4.2,16.6-3.1,22.5-9.1,5-5.2,8.1-11.9,8.8-19,.3-3.4.3-6.8.1-10.2h-28.6s0,0,0,0ZM378.9,26.1c-14.4,0-26.1,11.7-26.1,26.1s11.7,26.1,26.1,26.1,26.1-11.7,26.1-26.1h0c0-14.4-11.6-26.1-26.1-26.1h0s0,0,0,0ZM378.9,67.6c-8.5,0-15.4-6.9-15.4-15.4s6.9-15.4,15.4-15.4,15.4,6.9,15.4,15.4h0c0,8.5-6.9,15.4-15.4,15.4h0ZM335.3,76.9h11.5v-44.3h-11.5v44.3ZM317.7,76.9h11.5v-11.5h-11.5v11.5ZM288.6,26.1c-14.4,0-26.1,11.7-26.1,26.1,0,14.4,11.7,26.1,26.1,26.1,9.6,0,18.4-5.2,23-13.7l-9.6-4.7c-4.3,7.3-13.8,9.8-21.1,5.5-3.5-2.1-6-5.4-7.1-9.3h40.8c2.2-14.3-7.6-27.6-21.9-29.8-1.3-.2-2.6-.3-3.9-.3h0c0,0,0,0,0,0ZM274.1,46.8c3-8,11.9-12,19.9-9,4.2,1.6,7.4,4.8,9,9h-28.9ZM335.3,27.6h11.5v-11.5h-11.5v11.5Z"/>
  <path class="st1" d="M46.4,71.9c-14.1,0-25.5-11.4-25.5-25.5s11.4-25.5,25.5-25.5V0C20.8,0,0,20.8,0,46.4s20.8,46.4,46.4,46.4,46.4-20.8,46.4-46.4h-20.9c0,14.1-11.4,25.5-25.5,25.5Z"/>
  <rect class="st0" x="46.4" y="20.9" width="25.5" height="25.5"/>
</svg>