<svg width="800" height="800" viewBox="0 0 800 800" fill="none" xmlns="http://www.w3.org/2000/svg">
<circle cx="400" cy="400" r="400" fill="black"/>
<path d="M469.4 319.88H330.641C329.239 319.88 327.851 320.156 326.556 320.693C325.26 321.229 324.084 322.016 323.093 323.008C322.102 323.999 321.316 325.176 320.78 326.472C320.244 327.767 319.969 329.155 319.97 330.557V469.336C319.97 472.166 321.094 474.88 323.095 476.882C325.096 478.883 327.81 480.007 330.641 480.007H469.4C472.231 480.007 474.946 478.883 476.948 476.882C478.95 474.881 480.076 472.167 480.078 469.336V330.576C480.08 329.173 479.806 327.782 479.27 326.484C478.735 325.187 477.949 324.007 476.957 323.014C475.965 322.02 474.787 321.232 473.491 320.694C472.194 320.157 470.804 319.88 469.4 319.88Z" fill="white"/>
<path d="M309.228 159.791H170.468C167.638 159.791 164.923 160.915 162.921 162.916C160.918 164.917 159.793 167.631 159.791 170.462V309.222C159.798 312.05 160.926 314.76 162.927 316.757C164.928 318.755 167.64 319.878 170.468 319.88H309.228C312.059 319.878 314.773 318.752 316.774 316.75C318.775 314.748 319.899 312.033 319.899 309.202V170.462C319.899 169.061 319.623 167.673 319.087 166.378C318.551 165.084 317.764 163.907 316.774 162.916C315.783 161.926 314.606 161.14 313.312 160.603C312.017 160.067 310.629 159.791 309.228 159.791Z" fill="white"/>
<path d="M629.444 159.791H490.684C489.28 159.788 487.89 160.061 486.592 160.596C485.295 161.131 484.115 161.916 483.122 162.907C482.128 163.899 481.34 165.076 480.802 166.372C480.264 167.669 479.987 169.058 479.987 170.462V309.222C479.99 310.624 480.269 312.012 480.807 313.306C481.346 314.601 482.135 315.776 483.128 316.766C484.121 317.756 485.3 318.54 486.596 319.074C487.893 319.609 489.282 319.882 490.684 319.88H629.444C632.271 319.878 634.982 318.755 636.983 316.757C638.983 314.759 640.109 312.049 640.114 309.222V170.462C640.114 167.632 638.99 164.918 636.989 162.916C634.988 160.915 632.274 159.791 629.444 159.791Z" fill="white"/>
<path d="M309.228 480.007H170.468C167.638 480.007 164.923 481.131 162.921 483.132C160.918 485.133 159.793 487.848 159.791 490.678V629.438C159.789 630.842 160.063 632.232 160.598 633.53C161.134 634.828 161.92 636.007 162.912 637C163.903 637.994 165.081 638.782 166.378 639.32C167.675 639.858 169.065 640.135 170.468 640.135H309.228C312.058 640.135 314.772 639.01 316.774 637.009C318.775 635.008 319.899 632.294 319.899 629.464V490.672C319.897 487.843 318.772 485.13 316.771 483.13C314.77 481.131 312.057 480.007 309.228 480.007Z" fill="white"/>
<path d="M629.444 480.007H490.684C489.281 480.004 487.891 480.277 486.594 480.812C485.297 481.346 484.118 482.131 483.124 483.121C482.131 484.112 481.342 485.289 480.804 486.584C480.266 487.88 479.988 489.269 479.987 490.672V629.438C479.984 630.844 480.258 632.236 480.795 633.535C481.331 634.835 482.119 636.015 483.113 637.009C484.107 638.003 485.287 638.791 486.586 639.327C487.886 639.864 489.278 640.138 490.684 640.135H629.444C630.847 640.135 632.237 639.858 633.533 639.32C634.83 638.782 636.007 637.994 636.998 637C637.989 636.006 638.775 634.827 639.31 633.529C639.844 632.232 640.118 630.842 640.115 629.438V490.672C640.113 487.843 638.988 485.13 636.987 483.131C634.986 481.131 632.273 480.007 629.444 480.007Z" fill="white"/>
</svg>
